<?xml version="1.0" standalone="no"?>
<!DOCTYPE svg PUBLIC "-//W3C//DTD SVG 20010904//EN"
 "http://www.w3.org/TR/2001/REC-SVG-20010904/DTD/svg10.dtd">
<svg version="1.0" xmlns="http://www.w3.org/2000/svg"
 width="480.000000pt" height="143.000000pt" viewBox="0 0 480.000000 143.000000"
 preserveAspectRatio="xMidYMid meet">

<g transform="translate(0.000000,143.000000) scale(0.100000,-0.100000)"
fill="#000000" stroke="none">
<path d="M605 1321 c-115 -33 -241 -116 -308 -204 l-26 -35 111 -76 112 -76
41 39 c22 22 66 52 98 66 51 24 68 27 140 23 135 -6 230 -68 286 -187 34 -74
36 -191 4 -262 l-21 -47 111 -76 111 -76 24 41 c83 139 99 333 42 496 -63 179
-227 329 -415 378 -79 20 -233 19 -310 -4z"/>
</g>
</svg>
