<svg xmlns="http://www.w3.org/2000/svg" width="325.5" viewBox="0 0 325.5 95.25" height="95.25" version="1.0"><g fill="#FFF"><g><g><path d="M 42.453125 -15.453125 C 40.921875 -10.390625 38.40625 -6.375 34.90625 -3.40625 C 31.414062 -0.445312 27.019531 1.03125 21.71875 1.03125 C 17.59375 1.03125 14.097656 0.179688 11.234375 -1.515625 C 8.378906 -3.210938 6.039062 -5.460938 4.21875 -8.265625 C 2.394531 -11.066406 1.082031 -14.300781 0.28125 -17.96875 C -0.507812 -21.644531 -0.90625 -25.457031 -0.90625 -29.40625 C -0.90625 -33.34375 -0.507812 -37.148438 0.28125 -40.828125 C 1.082031 -44.503906 2.394531 -47.753906 4.21875 -50.578125 C 6.039062 -53.410156 8.378906 -55.675781 11.234375 -57.375 C 14.097656 -59.082031 17.59375 -59.9375 21.71875 -59.9375 C 25.363281 -59.9375 28.476562 -59.285156 31.0625 -57.984375 C 33.65625 -56.691406 35.570312 -54.722656 36.8125 -52.078125 L 36.8125 -58.9375 L 42.09375 -58.9375 L 42.09375 -39.609375 L 36.8125 -39.609375 C 36.8125 -41.691406 36.410156 -43.65625 35.609375 -45.5 C 34.816406 -47.351562 33.742188 -48.957031 32.390625 -50.3125 C 31.035156 -51.664062 29.429688 -52.726562 27.578125 -53.5 C 25.722656 -54.269531 23.769531 -54.65625 21.71875 -54.65625 C 18.53125 -54.65625 15.890625 -53.898438 13.796875 -52.390625 C 11.703125 -50.890625 10.019531 -48.914062 8.75 -46.46875 C 7.488281 -44.03125 6.59375 -41.320312 6.0625 -38.34375 C 5.539062 -35.363281 5.28125 -32.382812 5.28125 -29.40625 C 5.28125 -26.457031 5.539062 -23.484375 6.0625 -20.484375 C 6.59375 -17.484375 7.488281 -14.785156 8.75 -12.390625 C 10.019531 -10.003906 11.703125 -8.050781 13.796875 -6.53125 C 15.890625 -5.007812 18.53125 -4.25 21.71875 -4.25 C 29.070312 -4.25 34.191406 -8.6875 37.078125 -17.5625 Z M 42.453125 -15.453125" transform="translate(12.036 78.737)"/></g></g></g><g fill="#FFF"><g><g><path d="M 33.65625 0 L 8.40625 0 L 8.40625 -5.28125 L 17.9375 -5.28125 L 17.9375 -53.65625 L 8.40625 -53.65625 L 8.40625 -58.9375 L 24.15625 -58.9375 L 24.15625 -5.28125 L 33.65625 -5.28125 Z M 33.65625 0" transform="translate(62.53 78.737)"/></g></g></g><g fill="#FFF"><g><g><path d="M 2.21875 -42.09375 L 8.40625 -42.09375 L 8.40625 -16.078125 C 8.40625 -12.316406 9.222656 -9.40625 10.859375 -7.34375 C 12.503906 -5.28125 15.148438 -4.25 18.796875 -4.25 C 21.078125 -4.25 23.132812 -4.773438 24.96875 -5.828125 C 26.8125 -6.878906 28.378906 -8.285156 29.671875 -10.046875 C 30.960938 -11.804688 31.945312 -13.820312 32.625 -16.09375 C 33.3125 -18.375 33.65625 -20.75 33.65625 -23.21875 L 33.65625 -42.09375 L 39.875 -42.09375 L 39.875 0 L 33.65625 0 L 33.65625 -10.53125 C 30.695312 -2.820312 25.394531 1.03125 17.75 1.03125 C 7.394531 1.03125 2.21875 -4.671875 2.21875 -16.078125 Z M 2.21875 -42.09375" transform="translate(113.024 78.737)"/></g></g></g><g fill="#FFF"><g><g><path d="M 42.09375 -21 C 42.09375 -17.78125 41.59375 -14.816406 40.59375 -12.109375 C 39.601562 -9.398438 38.179688 -7.070312 36.328125 -5.125 C 34.484375 -3.1875 32.25 -1.675781 29.625 -0.59375 C 27.007812 0.488281 24.078125 1.03125 20.828125 1.03125 C 18.535156 1.03125 16.34375 0.625 14.25 -0.1875 C 12.15625 -1 10.207031 -2.203125 8.40625 -3.796875 L 8.40625 0 L 2.21875 0 L 2.21875 -58.9375 L 8.40625 -58.9375 L 8.40625 -38.203125 C 10.207031 -39.742188 12.15625 -40.941406 14.25 -41.796875 C 16.34375 -42.660156 18.535156 -43.09375 20.828125 -43.09375 C 24.078125 -43.09375 27.007812 -42.539062 29.625 -41.4375 C 32.25 -40.34375 34.484375 -38.820312 36.328125 -36.875 C 38.179688 -34.9375 39.601562 -32.601562 40.59375 -29.875 C 41.59375 -27.15625 42.09375 -24.195312 42.09375 -21 Z M 35.8125 -21 C 35.8125 -23.40625 35.503906 -25.625 34.890625 -27.65625 C 34.273438 -29.695312 33.332031 -31.46875 32.0625 -32.96875 C 30.800781 -34.476562 29.226562 -35.664062 27.34375 -36.53125 C 25.46875 -37.40625 23.296875 -37.84375 20.828125 -37.84375 C 16.066406 -37.84375 11.925781 -35.960938 8.40625 -32.203125 L 8.40625 -9.703125 C 10.207031 -7.753906 12.140625 -6.359375 14.203125 -5.515625 C 16.265625 -4.671875 18.472656 -4.25 20.828125 -4.25 C 23.296875 -4.25 25.453125 -4.679688 27.296875 -5.546875 C 29.148438 -6.421875 30.707031 -7.609375 31.96875 -9.109375 C 33.238281 -10.617188 34.195312 -12.390625 34.84375 -14.421875 C 35.488281 -16.460938 35.8125 -18.65625 35.8125 -21 Z M 35.8125 -21" transform="translate(163.518 78.737)"/></g></g></g><g fill="#FFF"><g><g><path d="M 42.09375 -21 C 42.09375 -17.78125 41.59375 -14.816406 40.59375 -12.109375 C 39.601562 -9.398438 38.179688 -7.070312 36.328125 -5.125 C 34.484375 -3.1875 32.25 -1.675781 29.625 -0.59375 C 27.007812 0.488281 24.078125 1.03125 20.828125 1.03125 C 18.535156 1.03125 16.34375 0.625 14.25 -0.1875 C 12.15625 -1 10.207031 -2.203125 8.40625 -3.796875 L 8.40625 0 L 2.21875 0 L 2.21875 -58.9375 L 8.40625 -58.9375 L 8.40625 -38.203125 C 10.207031 -39.742188 12.15625 -40.941406 14.25 -41.796875 C 16.34375 -42.660156 18.535156 -43.09375 20.828125 -43.09375 C 24.078125 -43.09375 27.007812 -42.539062 29.625 -41.4375 C 32.25 -40.34375 34.484375 -38.820312 36.328125 -36.875 C 38.179688 -34.9375 39.601562 -32.601562 40.59375 -29.875 C 41.59375 -27.15625 42.09375 -24.195312 42.09375 -21 Z M 35.8125 -21 C 35.8125 -23.40625 35.503906 -25.625 34.890625 -27.65625 C 34.273438 -29.695312 33.332031 -31.46875 32.0625 -32.96875 C 30.800781 -34.476562 29.226562 -35.664062 27.34375 -36.53125 C 25.46875 -37.40625 23.296875 -37.84375 20.828125 -37.84375 C 16.066406 -37.84375 11.925781 -35.960938 8.40625 -32.203125 L 8.40625 -9.703125 C 10.207031 -7.753906 12.140625 -6.359375 14.203125 -5.515625 C 16.265625 -4.671875 18.472656 -4.25 20.828125 -4.25 C 23.296875 -4.25 25.453125 -4.679688 27.296875 -5.546875 C 29.148438 -6.421875 30.707031 -7.609375 31.96875 -9.109375 C 33.238281 -10.617188 34.195312 -12.390625 34.84375 -14.421875 C 35.488281 -16.460938 35.8125 -18.65625 35.8125 -21 Z M 35.8125 -21" transform="translate(214.011 78.737)"/></g></g></g><g fill="#FFF"><g><g><path d="M 25.25 -50.5 L 16.84375 -50.5 L 16.84375 -58.9375 L 25.25 -58.9375 Z M 33.65625 0 L 8.40625 0 L 8.40625 -5.28125 L 17.9375 -5.28125 L 17.9375 -36.8125 L 8.40625 -36.8125 L 8.40625 -42.09375 L 24.15625 -42.09375 L 24.15625 -5.28125 L 33.65625 -5.28125 Z M 33.65625 0" transform="translate(264.505 78.737)"/></g></g></g></svg>